<svg style="position: absolute; width: 0; height: 0;" width="0" height="0" version="1.1" xmlns="http://www.w3.org/2000/svg" xmlns:xlink="http://www.w3.org/1999/xlink">
    <defs>
        <symbol id="icon-ch" viewBox="0 0 32 32">
            <path fill="#006aa7" class="path1 fill-color1" d="M0 0h31.999v31.999h-31.999v-31.999z"/>
            <path fill="#fecc00" class="path2 fill-color2" d="M0 13h31.999v6h-31.999v-6z"/>
            <path fill="#fecc00" class="path3 fill-color2" d="M12 0h6v31.999h-6v-15.999z"/>
        </symbol>
        <symbol id="icon-linkedin" viewBox="0 0 27 32">
            <path class="path1" d="M6.232 11.161v17.696h-5.893v-17.696h5.893zM6.607 5.696q0.018 1.304-0.902 2.179t-2.42 0.875h-0.036q-1.464 0-2.357-0.875t-0.893-2.179q0-1.321 0.92-2.188t2.402-0.866 2.375 0.866 0.911 2.188zM27.429 18.714v10.143h-5.875v-9.464q0-1.875-0.723-2.938t-2.259-1.063q-1.125 0-1.884 0.616t-1.134 1.527q-0.196 0.536-0.196 1.446v9.875h-5.875q0.036-7.125 0.036-11.554t-0.018-5.286l-0.018-0.857h5.875v2.571h-0.036q0.357-0.571 0.732-1t1.009-0.929 1.554-0.777 2.045-0.277q3.054 0 4.911 2.027t1.857 5.938z"></path>
        </symbol>
        <symbol id="icon-github" viewBox="0 0 32 32">
            <path class="path1" d="M15.996 2.946c-7.677 0-13.902 6.224-13.902 13.902 0 6.142 3.983 11.353 9.507 13.192 0.695 0.129 0.95-0.302 0.95-0.669 0-0.331-0.013-1.427-0.019-2.588-3.868 0.841-4.684-1.64-4.684-1.64-0.632-1.607-1.544-2.034-1.544-2.034-1.261-0.863 0.095-0.845 0.095-0.845 1.396 0.098 2.131 1.433 2.131 1.433 1.24 2.125 3.252 1.511 4.046 1.156 0.125-0.898 0.485-1.512 0.883-1.859-3.088-0.351-6.334-1.544-6.334-6.871 0-1.518 0.543-2.758 1.433-3.732-0.144-0.35-0.62-1.764 0.135-3.679 0 0 1.168-0.373 3.824 1.425 1.109-0.308 2.298-0.463 3.48-0.468 1.181 0.005 2.372 0.16 3.483 0.468 2.654-1.799 3.819-1.425 3.819-1.425 0.757 1.915 0.281 3.329 0.136 3.679 0.891 0.974 1.431 2.214 1.431 3.732 0 5.34-3.252 6.515-6.348 6.86 0.499 0.431 0.943 1.277 0.943 2.574 0 1.86-0.016 3.357-0.016 3.815 0 0.37 0.25 0.804 0.955 0.667 5.521-1.84 9.499-7.050 9.499-13.19 0-7.678-6.224-13.902-13.902-13.902z"/>
            <path class="path2" d="M7.36 22.906c-0.031 0.069-0.139 0.090-0.238 0.043-0.101-0.045-0.157-0.14-0.125-0.209 0.030-0.071 0.139-0.091 0.239-0.043 0.101 0.045 0.159 0.14 0.124 0.21v0z"/>
            <path class="path3" d="M7.923 23.535c-0.066 0.061-0.196 0.033-0.284-0.064-0.091-0.097-0.108-0.227-0.041-0.289 0.068-0.061 0.194-0.033 0.285 0.064 0.091 0.098 0.109 0.227 0.040 0.289v0z"/>
            <path class="path4" d="M8.471 24.335c-0.085 0.059-0.225 0.004-0.311-0.12s-0.085-0.272 0.002-0.331c0.086-0.059 0.224-0.006 0.311 0.117 0.085 0.126 0.085 0.274-0.002 0.335v0z"/>
            <path class="path5" d="M9.222 25.109c-0.076 0.084-0.239 0.061-0.357-0.053-0.122-0.112-0.155-0.271-0.079-0.355 0.077-0.084 0.241-0.061 0.36 0.053 0.121 0.112 0.157 0.272 0.076 0.355v0z"/>
            <path class="path6" d="M10.258 25.558c-0.034 0.109-0.19 0.158-0.347 0.112-0.157-0.048-0.26-0.175-0.228-0.285s0.19-0.161 0.348-0.112c0.157 0.047 0.26 0.174 0.228 0.285v0z"/>
            <path class="path7" d="M11.396 25.641c0.004 0.115-0.13 0.21-0.295 0.212-0.166 0.004-0.301-0.089-0.303-0.202 0-0.116 0.131-0.21 0.297-0.213 0.165-0.003 0.301 0.089 0.301 0.203v0z"/>
            <path class="path8" d="M12.454 25.461c0.020 0.112-0.095 0.227-0.259 0.257-0.161 0.030-0.311-0.040-0.331-0.15-0.020-0.115 0.097-0.23 0.258-0.259 0.164-0.029 0.312 0.039 0.332 0.152v0z"/>
        </symbol>
        <symbol id="icon-facebook" viewBox="0 0 32 32">
            <path class="path1" d="M16 2.911c-7.676 0-13.899 6.224-13.899 13.899 0 7.676 6.223 13.898 13.899 13.898s13.899-6.222 13.899-13.898c0-7.675-6.224-13.899-13.899-13.899zM19.679 16.752h-2.407c0 3.846 0 8.584 0 8.584h-3.567c0 0 0-4.689 0-8.584h-1.697v-3.030h1.697v-1.964c0-1.405 0.667-3.599 3.601-3.599l2.642 0.010v2.944c0 0-1.606 0-1.918 0-0.313 0-0.756 0.156-0.756 0.825v1.785h2.72l-0.313 3.030z"/>
        </symbol>
        <symbol id="icon-fe" viewBox="0 0 31 32">
            <path class="path1" d="M0.211 5.646c-0.847 0.848-0.666 2.042 0.008 2.715 0.027 0.026 2.734 2.612 6.541 6.419 0.098 0.098 0.226 0.146 0.354 0.146s0.256-0.049 0.354-0.146c0.195-0.195 0.195-0.512 0-0.707-0.574-0.574-1.12-1.117-1.638-1.631l1.589-1.589c0.195-0.195 0.195-0.512 0-0.707s-0.512-0.195-0.707 0l-1.593 1.593c-0.891-0.88-1.676-1.648-2.315-2.271l3.615-3.615c0.195-0.195 0.195-0.512 0-0.707s-0.512-0.195-0.707 0l-3.626 3.626c-0.736-0.713-1.16-1.118-1.167-1.125-0.211-0.211-0.488-0.805 0-1.293l5-5c0.193-0.196 0.707-0.585 1.271-0.024 0.025 0.028 2.55 2.896 6.404 6.75 0.195 0.195 0.512 0.195 0.707 0s0.195-0.512 0-0.707c-3.83-3.829-6.336-6.675-6.382-6.727-0.932-0.93-2.056-0.651-2.707 0l-5.001 5zM21.419 24.146c-0.195-0.195-0.512-0.195-0.707 0l-1.591 1.59c-0.485-0.491-0.994-1.005-1.53-1.541-0.195-0.195-0.512-0.195-0.707 0s-0.195 0.512 0 0.707c3.704 3.703 6.291 6.469 6.328 6.509 0.343 0.344 0.813 0.533 1.323 0.533v0c0.525 0 1.056-0.205 1.385-0.535l4.998-5.057c0.629-0.629 0.665-1.696 0.078-2.285l-6.706-6.705c-0.195-0.195-0.512-0.195-0.707 0s-0.195 0.512 0 0.707l6.706 6.705c0.2 0.2 0.162 0.632-0.079 0.873l-4.999 5.057c-0.115 0.116-0.376 0.24-0.676 0.24 0 0 0 0 0 0-0.172 0-0.418-0.042-0.604-0.229-0.010-0.011-0.429-0.458-1.156-1.219l3.644-3.644c0.195-0.195 0.195-0.512 0-0.707s-0.512-0.195-0.707 0l-3.629 3.629c-0.624-0.649-1.389-1.438-2.26-2.326l1.596-1.596c0.195-0.194 0.195-0.51 0-0.706zM-0.293 31.829c0.096 0.098 0.225 0.15 0.358 0.15 0.048 0 0.096-0.007 0.143-0.021l10-2.979c0.081-0.024 0.153-0.067 0.212-0.127l17.090-17.205c0.024-0.024 0.036-0.055 0.054-0.082l3.656-3.656c0.294-0.295 0.457-0.686 0.457-1.103s-0.163-0.807-0.457-1.1l-5.235-5.234c-0.588-0.588-1.615-0.588-2.203 0l-3.739 3.739c-0.024 0.024-0.037 0.055-0.055 0.083l-17.116 17.117c-0.056 0.056-0.098 0.124-0.122 0.199l-3.16 9.715c-0.058 0.177-0.013 0.37 0.117 0.504zM20.425 5.271l1.039 1.039-15.523 15.565-1.727-0.392 16.211-16.212zM6.565 22.666l15.607-15.648 2.436 2.436-15.748 15.546h-2.295v-2.334zM26.449 11.296l-16.244 16.354-0.577-2.002 15.687-15.487 1.134 1.135zM3.558 22.359l2.007 0.456v2.685c0 0.276 0.224 0.5 0.5 0.5h2.624l0.634 2.2-8.488 2.529 2.723-8.37zM24.49 1.179c0.211-0.211 0.578-0.211 0.789 0l5.235 5.235c0.105 0.105 0.163 0.245 0.163 0.394 0 0.148-0.058 0.289-0.164 0.395l-3.371 3.372-6.023-6.023 3.371-3.373z"/>
        </symbol>
        <symbol id="icon-be" viewBox="0 0 32 32">
            <path class="path1" d="M28.354 1.354c0.115-0.115 0.167-0.279 0.139-0.439s-0.132-0.297-0.28-0.366c-2.291-1.080-5.010-0.606-6.798 1.191-1.698 1.709-2.291 4.393-1.499 6.637l-11.539 11.539c-0.627-0.224-1.297-0.336-1.996-0.336-1.714 0-3.376 0.682-4.559 1.872-1.782 1.792-2.284 4.44-1.281 6.747 0.066 0.152 0.203 0.262 0.366 0.292 0.164 0.031 0.331-0.021 0.447-0.139l3.491-3.509c0.23-0.232 0.601-0.263 0.793-0.068l1.507 1.577c0.219 0.221 0.209 0.562-0.022 0.795l-3.478 3.5c-0.115 0.115-0.166 0.279-0.138 0.439s0.132 0.296 0.279 0.365c0.829 0.391 1.701 0.588 2.591 0.588 1.572 0 3.065-0.632 4.207-1.78 1.698-1.708 2.291-4.392 1.498-6.636l11.539-11.54c0.628 0.224 1.298 0.336 1.997 0.336 1.714 0 3.376-0.682 4.559-1.872 1.782-1.792 2.284-4.44 1.281-6.747-0.066-0.152-0.203-0.262-0.366-0.292-0.161-0.028-0.33 0.021-0.447 0.139l-3.491 3.509c-0.215 0.216-0.58 0.214-0.801-0.010l-1.499-1.499c-0.226-0.227-0.225-0.568-0.001-0.794l3.501-3.499zM24.146 6.354l1.499 1.499c0.599 0.602 1.625 0.605 2.218 0.009l2.93-2.944c0.469 1.741-0.016 3.609-1.324 4.926-0.997 1.003-2.399 1.577-3.85 1.577-0.683 0-1.33-0.128-1.923-0.38-0.188-0.081-0.405-0.037-0.549 0.106l-12 12c-0.144 0.144-0.186 0.36-0.107 0.547 0.803 1.91 0.314 4.375-1.163 5.861-1.321 1.328-3.244 1.801-4.985 1.258l2.941-2.96c0.621-0.625 0.631-1.594 0.029-2.198l-1.506-1.577c-0.581-0.585-1.614-0.549-2.218 0.062l-2.93 2.944c-0.469-1.741 0.016-3.609 1.324-4.926 0.997-1.003 2.399-1.577 3.85-1.577 0.683 0 1.33 0.128 1.923 0.38 0.187 0.082 0.405 0.037 0.549-0.106l12-12c0.144-0.144 0.186-0.36 0.107-0.547-0.803-1.91-0.314-4.376 1.163-5.862 1.32-1.328 3.242-1.798 4.982-1.258l-2.96 2.961c-0.616 0.617-0.616 1.585 0 2.205zM29.21 30.647c-0.221 0.222-0.604 0.222-0.827-0.002l-10.030-10c-0.195-0.193-0.512-0.194-0.707 0.002s-0.194 0.512 0.001 0.707l10.029 9.998c0.3 0.301 0.698 0.467 1.122 0.467 0 0 0 0 0 0 0.424 0 0.822-0.166 1.128-0.474l1.429-1.493c0.615-0.618 0.615-1.587-0.001-2.206l-10-10c-0.195-0.195-0.512-0.195-0.707 0s-0.195 0.512 0 0.707l9.999 9.999c0.229 0.23 0.229 0.564-0.007 0.802l-1.429 1.493zM5.854 3.146l-3-3c-0.195-0.195-0.512-0.195-0.707 0l-2 2c-0.195 0.195-0.195 0.512 0 0.707l3 3c0.097 0.098 0.225 0.147 0.353 0.147s0.256-0.049 0.354-0.146l0.646-0.647 7.646 7.646c0.098 0.098 0.226 0.147 0.354 0.147s0.256-0.049 0.354-0.146c0.195-0.195 0.195-0.512 0-0.707l-7.647-7.647 0.646-0.646c0.196-0.196 0.196-0.512 0.001-0.708zM3.5 4.793l-2.293-2.293 1.293-1.293 2.293 2.293-1.293 1.293z"/>
        </symbol>

        <symbol id="icon-crypto" viewBox="0 0 32 32">

        </symbol>

        <symbol id="icon-game" viewBox="0 0 32 32">

        </symbol>

        <symbol id="icon-manage" viewBox="0 0 32 32">
		    <path class="path1" d="M188.634,234.066c8.462-5.287,16.126-11.735,22.767-19.127l23.942,13.826l21.8-37.76l-23.894-13.796
                c3.038-9.275,4.825-19.113,5.16-29.311l27.183-4.793l-7.574-42.938l-27.178,4.793c-3.756-9.309-8.795-17.965-14.906-25.744
                l17.766-21.17L200.3,30.022l-17.751,21.152c-8.67-4.646-18.059-8.119-27.954-10.203V13.385h-43.6v27.586
                c-9.896,2.084-19.285,5.557-27.956,10.203l-17.75-21.152l-33.4,28.025l17.764,21.17c-6.11,7.779-11.149,16.436-14.905,25.744
                L7.57,100.168L0,143.106l27.179,4.793c0.335,10.199,2.123,20.035,5.161,29.313L8.444,191.007l21.801,37.759l23.943-13.822
                c6.639,7.389,14.303,13.838,22.766,19.125l-9.451,25.963l40.972,14.91l9.438-25.928c4.864,0.688,9.831,1.053,14.882,1.053
                c5.051,0,10.019-0.363,14.883-1.053l9.437,25.93l40.97-14.914L188.634,234.066z M132.793,200.065
                c-30.702,0-55.68-24.977-55.68-55.68c0-30.701,24.978-55.68,55.68-55.68s55.68,24.979,55.68,55.68
                C188.473,175.088,163.496,200.065,132.793,200.065z"/>
		    <path class="path2" d="M376.041,266.807l-18.795,6.08c-3.584-6.229-8.014-11.869-13.115-16.779l10.504-16.764l-26.447-16.57l-10.498,16.75
                c-6.604-2.438-13.602-3.973-20.826-4.471l-2.725-19.559l-30.912,4.309l2.725,19.559c-6.809,2.453-13.125,5.847-18.812,9.996
                l-14.672-13.244l-20.912,23.168l14.684,13.259c-3.562,6.118-6.277,12.752-8.02,19.726l-19.744-0.714l-1.129,31.188l19.743,0.716
                c1.246,7.198,3.486,13.991,6.558,20.271l-15.578,12.143l19.185,24.615l15.609-12.164c5.438,4.582,11.511,8.396,18.031,11.311
                l-4.138,19.344l30.522,6.52l4.133-19.314c3.516,0.01,7.072-0.229,10.652-0.727c3.582-0.498,7.07-1.25,10.447-2.215l9.256,17.451
                l27.574-14.623l-9.266-17.471c5.48-4.586,10.271-9.918,14.252-15.812l18.338,7.436l11.727-28.924l-18.303-7.422
                c1.234-6.875,1.529-14.027,0.764-21.293l18.799-6.084L376.041,266.807z M297.129,350.006
                c-21.771,3.031-41.949-12.209-44.98-33.977c-3.037-21.769,12.207-41.949,33.977-44.979c21.768-3.036,41.941,12.207,44.98,33.978
                C334.135,326.795,318.896,346.969,297.129,350.006z"/>
		    <path class"path3" d="M418.146,158.647l0.732-24.629l-15.586-0.463c-0.977-5.428-2.723-10.803-5.285-15.971l12.24-9.67l-15.271-19.33
                l-12.238,9.666c-4.365-3.627-9.193-6.584-14.318-8.816l3.164-15.291l-24.123-4.996l-3.17,15.281
                c-5.559,0.008-11.156,0.797-16.641,2.412l-7.391-13.727l-21.695,11.684l7.391,13.729c-4.363,3.686-8.107,7.934-11.176,12.566
                l-14.496-5.77l-9.111,22.893l14.508,5.779c-0.955,5.508-1.141,11.158-0.514,16.799l-14.809,4.898l7.732,23.395l14.809-4.896
                c2.9,4.986,6.426,9.396,10.426,13.201l-8.191,13.268l20.963,12.946l8.209-13.292c5.285,1.896,10.828,3.051,16.453,3.414
                l2.252,15.453l24.383-3.561l-2.246-15.434c2.602-0.957,5.17-2.109,7.684-3.463c2.516-1.352,4.891-2.867,7.123-4.51l11.648,10.371
                l16.387-18.398l-11.656-10.383c2.795-4.9,4.875-10.164,6.203-15.619L418.146,158.647z M359.436,171.844
                c-15.281,8.227-34.404,2.492-42.627-12.783c-8.23-15.277-2.494-34.404,12.787-42.627c15.273-8.229,34.395-2.49,42.625,12.787
                C380.443,144.499,374.711,163.616,359.436,171.844z"/>
        </symbol>
        
        <symbol id="icon-develop" viewBox="0 0 32 32">
	        <path d="M116.993,203.218c13.4-1.8,26.8,2.8,36.3,12.3l24,24l22.7-22.6l-32.8-32.7c-5.1-5.1-5.1-13.4,0-18.5s13.4-5.1,18.5,0    l32.8,32.8l22.7-22.6l-24.1-24.1c-9.5-9.5-14.1-23-12.3-36.3c4-30.4-5.7-62.2-29-85.6c-23.8-23.8-56.4-33.4-87.3-28.8    c-4.9,0.7-6.9,6.8-3.4,10.3l30.9,30.9c14.7,14.7,14.7,38.5,0,53.1l-19,19c-14.7,14.7-38.5,14.7-53.1,0l-31-30.9    c-3.5-3.5-9.5-1.5-10.3,3.4c-4.6,30.9,5,63.5,28.8,87.3C54.793,197.518,86.593,207.218,116.993,203.218z" fill="#006DF0"/>
		    <path d="M309.193,243.918l-22.7,22.6l134.8,134.8c5.1,5.1,5.1,13.4,0,18.5s-13.4,5.1-18.5,0l-134.8-134.8l-22.7,22.6l138.9,138.9    c17.6,17.6,46.1,17.5,63.7-0.1s17.6-46.1,0.1-63.7L309.193,243.918z" fill="#006DF0"/>
		    <path d="M361.293,153.918h59.9l59.9-119.7l-29.9-29.9l-119.8,59.8v59.9l-162.8,162.3l-29.3-29.2l-118,118    c-24.6,24.6-24.6,64.4,0,89s64.4,24.6,89,0l118-118l-29.9-29.9L361.293,153.918z" fill="#006DF0"/>
	    </symbol>
    </defs>
</svg>
